<svg id="Capa_1" enable-background="new 0 0 512 512" height="512" viewBox="0 0 512 512" width="512" xmlns="http://www.w3.org/2000/svg"><g><path d="m361.745 187.352h-173.197l-2.861-22.161c-.644-4.986-4.89-8.72-9.917-8.72h-37.586c-5.523 0-10 4.478-10 10s4.477 10 10 10h28.794l19.543 151.391c.384 2.974 2.049 5.502 4.398 7.058-2.092 4.295-3.266 9.116-3.266 14.207 0 17.937 14.577 32.529 32.495 32.529s32.495-14.593 32.495-32.529c0-4.444-.895-8.683-2.514-12.546h30.317c-1.615 3.858-2.508 8.092-2.508 12.53 0 17.937 14.577 32.529 32.495 32.529s32.495-14.593 32.495-32.529c0-6.716-2.044-12.963-5.541-18.151.645-1.323 1.008-2.808 1.008-4.379 0-5.522-4.477-10-10-10h-123.164l-2.435-18.86h131.943c4.42 0 8.316-2.901 9.582-7.137l27.006-90.369c.904-3.027.325-6.304-1.562-8.837s-4.861-4.026-8.02-4.026zm-141.597 174.304c-6.89 0-12.495-5.621-12.495-12.529 0-6.909 5.605-12.53 12.495-12.53s12.495 5.621 12.495 12.53c.001 6.908-5.605 12.529-12.495 12.529zm90.286-.015c-6.89 0-12.495-5.621-12.495-12.529 0-6.909 5.605-12.53 12.495-12.53s12.495 5.621 12.495 12.53c0 6.908-5.606 12.529-12.495 12.529zm16.856-83.92h-127.076l-9.084-70.369h157.189z"/><path d="m376.321 0h-240.642c-26.624 0-48.284 21.579-48.284 48.103v415.704c0 26.574 21.619 48.193 48.193 48.193h240.825c26.574 0 48.193-21.619 48.193-48.193v-415.704c-.001-26.524-21.661-48.103-48.285-48.103zm-268.926 48.103c0-15.496 12.688-28.103 28.284-28.103h240.643c15.596 0 28.284 12.606 28.284 28.103v364.065h-297.211zm297.21 415.704c0 15.546-12.647 28.193-28.193 28.193h-240.825c-15.545 0-28.193-12.647-28.193-28.193v-31.639h297.211z"/><path d="m249.333 472.084h13.333c5.523 0 10-4.478 10-10s-4.477-10-10-10h-13.333c-5.523 0-10 4.478-10 10s4.478 10 10 10z"/><path d="m208.511 59.553h94.979c5.523 0 10-4.478 10-10s-4.477-10-10-10h-94.979c-5.523 0-10 4.478-10 10s4.477 10 10 10z"/></g></svg>