<svg id="Layer_1" enable-background="new 0 0 510 510" height="512" viewBox="0 0 510 510" width="512" xmlns="http://www.w3.org/2000/svg"><g><g><g><path d="m502.093 318.121c.236-.91.463-1.826.688-2.743-.222.917-.455 1.83-.688 2.743z" fill="#afe6ff"/></g><g><path d="m255 0c-98.131 0-158.574 55.347-158.741 55.441-3.787 17.481-10.374 42.85-10.374 61.465 0 140.833 118.763 254.972 259.596 254.972 60.017 0 115.159-27.944 158.719-62.639.178-1.087 5.8-23.477 5.8-54.239 0-140.833-114.167-255-255-255z" fill="#aa3684"/></g><g><path d="m82.42 442.71h345.142c35.793-32.933 62.148-75.968 74.531-124.589.233-.913.466-1.826.688-2.743.106-.436 1.068-4.522 1.418-6.139-43.559 34.696-98.724 55.441-158.741 55.441-140.833 0-255-114.167-255-255 0-18.615 2.013-36.757 5.801-54.239-.006.005-.011.01-.017.014-58.645 46.72-96.242 118.737-96.242 199.545 0 74.265 31.757 141.106 82.42 187.71z" fill="#734a9b"/></g></g><g><g><path d="m366.771 197.818c-4.381 0-7.932-3.551-7.932-7.932v-98.145c0-33.378-27.154-60.532-60.532-60.532s-60.532 27.154-60.532 60.532v98.145c0 4.381-3.551 7.932-7.932 7.932s-7.932-3.551-7.932-7.932v-98.145c0-42.126 34.271-76.397 76.397-76.397s76.397 34.271 76.397 76.397v98.145c-.002 4.381-3.553 7.932-7.934 7.932z" fill="#2896ff"/></g></g><g><path d="m163.075 153.299v339.61c28.52 11.029 59.512 17.091 91.925 17.091 26.797 0 52.622-4.146 76.883-11.811v-344.89z" fill="#f1d333"/></g><g><path d="m434.05 436.521v-283.222h-102.167v344.89c38.924-12.298 73.807-33.682 102.167-61.668z" fill="#ffe65a"/></g><g><g><path d="m203.916 15.344c-1.74 0-3.46.08-5.171.195v15.906c1.706-.145 3.428-.236 5.171-.236 33.378 0 60.532 27.154 60.532 60.532v98.145c0 4.381 3.552 7.932 7.932 7.932s7.932-3.551 7.932-7.932v-98.145c0-42.125-34.271-76.397-76.396-76.397z" fill="#e4f6ff"/></g></g><path d="m205.555 256.257c-14.45-.241-28.182 2.713-40.545 8.192v-111.15h-81.936v290.02c23.656 21.609 51.402 38.809 81.936 50.329v-7.174c0-21.177 17.313-38.071 38.491-37.981.138.001.277.001.415.001 52.763 0 95.598-42.512 96.12-95.152.521-52.584-41.902-96.207-94.481-97.085z" fill="#eab14d"/><g><circle cx="203.916" cy="329.028" fill="#fff" r="96.125"/></g><g><path d="m144.469 316.83v-20.998c0-14.639 9.611-19.963 22.181-19.963 12.422 0 22.181 5.324 22.181 19.963v20.998c0 14.639-9.759 19.963-22.181 19.963-12.57-.001-22.181-5.324-22.181-19.963zm29.574-20.998c0-4.88-2.81-7.098-7.394-7.098s-7.246 2.218-7.246 7.098v20.998c0 4.88 2.662 7.098 7.246 7.098s7.394-2.218 7.394-7.098zm60.628-18.189c0 .887-.147 1.922-.591 2.81l-52.052 106.617c-1.035 2.218-3.845 3.697-6.654 3.697-5.027 0-8.281-4.141-8.281-7.837 0-.887.296-1.922.74-2.81l51.903-106.616c1.183-2.514 3.549-3.697 6.21-3.697 4.141-.001 8.725 3.104 8.725 7.836zm-22.328 86.802v-20.998c0-14.64 9.611-19.963 22.181-19.963 12.421 0 22.181 5.323 22.181 19.963v20.998c0 14.639-9.76 19.963-22.181 19.963-12.57 0-22.181-5.324-22.181-19.963zm29.574-20.998c0-4.88-2.81-7.098-7.394-7.098s-7.246 2.218-7.246 7.098v20.998c0 4.879 2.662 7.098 7.246 7.098s7.394-2.218 7.394-7.098z" fill="#dd544f"/></g><g><path d="m482.201 383.682-150.749-62.84c-4.814-2.007-9.637-.34-12.49 3.022l102.851 107.62c1.105-2.769 3.299-4.963 6.068-6.068l54.165-21.608c9.047-3.608 9.145-16.379.155-20.126z" fill="#2896ff"/><path d="m500.961 464.27-68.058-68.058c-4.245-4.245-11.126-4.245-15.371 0l-24.924 24.924c-4.245 4.245-4.245 11.126 0 15.371l95.242 56.245 13.111-13.111c4.245-4.245 4.245-11.127 0-15.371z" fill="#2896ff"/><g><path d="m487.85 492.751-168.884-168.884c-2.456 2.895-3.455 7.043-1.728 11.188l62.841 150.751c3.748 8.99 16.518 8.891 20.127-.155l11.847-29.698 48.613 48.613c4.244 4.244 11.126 4.245 15.37 0l4.607-4.607z" fill="#2976ff"/></g></g><g><g><path d="m135.451 197.818c-4.381 0-7.932-3.551-7.932-7.932v-98.145c0-42.126 34.271-76.397 76.397-76.397 4.381 0 7.932 3.551 7.932 7.932s-3.551 7.932-7.932 7.932c-33.378 0-60.532 27.154-60.532 60.532v98.145c-.001 4.382-3.552 7.933-7.933 7.933z" fill="#2896ff"/></g></g></g></svg>