<svg height="512pt" viewBox="0 -43 512.001 512" width="512pt" xmlns="http://www.w3.org/2000/svg"><path d="m476.617188 390.992188h-441.234376v-288.503907c0-9.027343 7.320313-16.347656 16.347657-16.347656h408.539062c9.027344 0 16.347657 7.320313 16.347657 16.347656zm0 0" fill="#426175"/><path d="m64.902344 96.03125h382.195312v253.222656h-382.195312zm0 0" fill="#f2f2f2"/><path d="m313.304688 223.34375-51.953126-49.023438c-2.949218-2.839843-7.644531-2.890624-10.65625-.046874l-52.933593 49.949218c-3.101563 2.929688-3.242188 7.820313-.316407 10.921875 1.519532 1.613281 3.570313 2.425781 5.621094 2.425781 1.902344 0 3.808594-.699218 5.300782-2.109374l47.632812-44.945313 46.699219 44.066406c1.492187 1.410157 3.398437 2.109375 5.304687 2.109375 2.050782 0 4.097656-.816406 5.617188-2.425781 2.929687-3.101563 2.789062-7.992187-.316406-10.921875zm0 0" fill="#426175"/><path d="m391.757812 96.03125h55.339844v253.222656h-55.339844zm0 0" fill="#cdd6df"/><path d="m502.394531 378.941406h-492.789062c-5.304688 0-9.605469 4.300782-9.605469 9.605469 0 20.941406 16.976562 37.914063 37.914062 37.914063h436.171876c20.941406 0 37.914062-16.972657 37.914062-37.914063 0-5.304687-4.300781-9.605469-9.605469-9.605469zm0 0" fill="#cdd6df"/><path d="m502.394531 378.941406h-45.738281v19.210938c0 15.636718-12.671875 28.308594-28.308594 28.308594h45.738282c20.9375 0 37.914062-16.972657 37.914062-37.914063 0-5.304687-4.300781-9.605469-9.605469-9.605469zm0 0" fill="#abb2ba"/><path d="m201.316406 378.941406v23.929688c0 13.027344 10.566406 23.589844 23.59375 23.589844h62.179688c13.027344 0 23.59375-10.5625 23.59375-23.589844v-23.929688zm0 0" fill="#f2f2f2"/><path d="m73.144531 96.796875h-73.144531l49.203125-87.144531c3.367187-5.960938 9.6875-9.652344 16.535156-9.652344h46.445313zm0 0" fill="#fd715c"/><path d="m146.285156 96.796875h-73.140625l39.035157-96.796875h57.53125zm0 0" fill="#e5483c"/><path d="m219.429688 96.796875h-73.144532l23.425782-96.796875h57.523437zm0 0" fill="#fd715c"/><path d="m292.570312 96.796875h-73.140624l7.804687-96.796875h57.53125zm0 0" fill="#e5483c"/><path d="m365.714844 96.796875h-73.144532l-7.804687-96.796875h57.523437zm0 0" fill="#fd715c"/><path d="m438.855469 96.796875h-73.140625l-23.425782-96.796875h57.53125zm0 0" fill="#e5483c"/><path d="m512 96.796875h-73.144531l-39.035157-96.796875h46.441407c6.847656 0 13.167969 3.691406 16.535156 9.652344zm0 0" fill="#fd715c"/><path d="m36.570312 148.722656c-20.195312 0-36.570312-16.375-36.570312-36.570312v-15.691406h73.144531v15.691406c0 20.195312-16.375 36.570312-36.574219 36.570312zm0 0" fill="#ff897d"/><path d="m109.714844 148.722656c-20.199219 0-36.570313-16.375-36.570313-36.570312v-15.691406h73.140625v15.691406c0 20.195312-16.375 36.570312-36.570312 36.570312zm0 0" fill="#fd715c"/><path d="m182.855469 148.722656c-20.195313 0-36.570313-16.375-36.570313-36.570312v-15.691406h73.144532v15.691406c0 20.195312-16.375 36.570312-36.574219 36.570312zm0 0" fill="#ff897d"/><path d="m256 148.722656c-20.199219 0-36.570312-16.375-36.570312-36.570312v-15.691406h73.140624v15.691406c0 20.195312-16.371093 36.570312-36.570312 36.570312zm0 0" fill="#fd715c"/><path d="m329.144531 148.722656c-20.199219 0-36.574219-16.375-36.574219-36.570312v-15.691406h73.144532v15.691406c0 20.195312-16.375 36.570312-36.570313 36.570312zm0 0" fill="#ff897d"/><path d="m402.285156 148.722656c-20.195312 0-36.570312-16.375-36.570312-36.570312v-15.691406h73.144531v15.691406c-.003906 20.195312-16.375 36.570312-36.574219 36.570312zm0 0" fill="#fd715c"/><path d="m475.429688 148.722656c-20.199219 0-36.570313-16.375-36.570313-36.570312v-15.691406h73.140625v15.691406c0 20.195312-16.375 36.570312-36.570312 36.570312zm0 0" fill="#ff897d"/><path d="m310.453125 317.863281h-108.90625c-4.4375 0-8.34375-2.933593-9.578125-7.195312l-21.859375-75.324219c-1.851563-6.382812 2.9375-12.757812 9.582031-12.757812h152.617188c6.644531 0 11.433594 6.375 9.582031 12.757812l-21.859375 75.324219c-1.234375 4.261719-5.140625 7.195312-9.578125 7.195312zm0 0" fill="#fed066"/><g fill="#f2f2f2"><path d="m290.289062 296.699219c-.710937 0-1.4375-.097657-2.15625-.308594-4.097656-1.1875-6.457031-5.472656-5.265624-9.570313l10.710937-36.914062c.039063-.152344.085937-.296875.132813-.441406 1.347656-4.046875 5.722656-6.234375 9.773437-4.886719 3.835937 1.28125 6.003906 5.277344 5.066406 9.136719-.027343.125-.0625.25-.097656.375l-10.746094 37.035156c-.980469 3.378906-4.066406 5.574219-7.417969 5.574219zm0 0"/><path d="m221.710938 296.699219c-3.351563 0-6.4375-2.195313-7.417969-5.574219l-10.746094-37.035156c-.035156-.125-.070313-.25-.101563-.375-.933593-3.859375 1.234376-7.859375 5.070313-9.136719 4.050781-1.351563 8.421875.835937 9.773437 4.886719.046876.140625.09375.289062.132813.4375l10.710937 36.917968c1.1875 4.097657-1.167968 8.382813-5.269531 9.570313-.714843.210937-1.441406.308594-2.152343.308594zm0 0"/><path d="m256 296.699219c-4.269531 0-7.726562-3.460938-7.726562-7.726563v-37.0625c0-4.269531 3.460937-7.726562 7.726562-7.726562s7.726562 3.457031 7.726562 7.726562v37.0625c0 4.265625-3.457031 7.726563-7.726562 7.726563zm0 0"/></g></svg>