<?xml version="1.0"?>
<svg xmlns="http://www.w3.org/2000/svg" viewBox="0 0 64 64" width="512" height="512"><g id="mobilephone_&#xB7;_ecommerce_&#xB7;_shopping_&#xB7;_buy_&#xB7;_cart" data-name="mobilephone &#xB7; ecommerce &#xB7; shopping &#xB7; buy &#xB7; cart"><path d="M17,7h1a1,1,0,0,0,0-2H17a1,1,0,0,0,0,2Z"/><path d="M22,7h1a1,1,0,0,0,0-2H22a1,1,0,0,0,0,2Z"/><path d="M61,12H38V7a5,5,0,0,0-5-5H7A5,5,0,0,0,2,7V52a5,5,0,0,0,5,5H26v4a1,1,0,0,0,1,1H47a1,1,0,0,0,1-1V55a1,1,0,0,0-1-1H46v-.39a1.023,1.023,0,0,1,.17-.56l.65-.98A7,7,0,0,0,48,48.18V38H61a1,1,0,0,0,1-1V13A1,1,0,0,0,61,12ZM4,7A3.009,3.009,0,0,1,7,4H33a3.009,3.009,0,0,1,3,3V8H4Zm0,3H36v2H33a1,1,0,0,0-1,1V24.19a3.123,3.123,0,0,0-2,2.92V36H29a3.009,3.009,0,0,0-3,3v8H4ZM26,55H7a3.009,3.009,0,0,1-3-3V49H26.06a7.007,7.007,0,0,0,1.12,3.07l.65.98a1.023,1.023,0,0,1,.17.56V54H27A1,1,0,0,0,26,55Zm20,5H28V56H46Zm0-11.82a5.016,5.016,0,0,1-.84,2.78l-.66.98a3,3,0,0,0-.5,1.67V54H30v-.39a3,3,0,0,0-.5-1.67l-.66-.98A5.016,5.016,0,0,1,28,48.18V39a1,1,0,0,1,1-1h1v5a1,1,0,0,0,2,0V27.11A1.092,1.092,0,0,1,32.91,26a.985.985,0,0,1,.8.31A.928.928,0,0,1,34,27V39a1,1,0,0,0,2,0V34a1,1,0,0,1,1-1,.949.949,0,0,1,.71.31A.928.928,0,0,1,38,34v5a1,1,0,0,0,2,0V35a1,1,0,0,1,1-1,.949.949,0,0,1,.71.31A.928.928,0,0,1,42,35v4a1,1,0,0,0,2,0V37a1,1,0,0,1,1-1,.949.949,0,0,1,.71.31A.928.928,0,0,1,46,37ZM60,36H47.82a2.972,2.972,0,0,0-.69-1.11,3.061,3.061,0,0,0-3.23-.68,2.942,2.942,0,0,0-.77-1.32,3.085,3.085,0,0,0-3.6-.5,2.744,2.744,0,0,0-.4-.5A3.066,3.066,0,0,0,36,31.17V27a2.954,2.954,0,0,0-.87-2.11A3.048,3.048,0,0,0,34,24.18V14H60Z"/><path d="M10,33H9a1,1,0,0,0,0,2h1a1,1,0,0,0,0-2Z"/><path d="M24,33H14a1,1,0,0,0,0,2H24a1,1,0,0,0,0-2Z"/><path d="M10,37H9a1,1,0,0,0,0,2h1a1,1,0,0,0,0-2Z"/><path d="M22,37H14a1,1,0,0,0,0,2h8a1,1,0,0,0,0-2Z"/><path d="M10,41H9a1,1,0,0,0,0,2h1a1,1,0,0,0,0-2Z"/><path d="M22,41H14a1,1,0,0,0,0,2h8a1,1,0,0,0,0-2Z"/><circle cx="45" cy="29" r="2"/><circle cx="50" cy="29" r="2"/><path d="M41,19h1.117l.139,1.111,0,.029.748,5.984A1,1,0,0,0,44,27h7a1,1,0,0,0,.949-.684l2-6A1,1,0,0,0,53,19H44.133l-.141-1.124A1,1,0,0,0,43,17H41a1,1,0,0,0,0,2Zm10.613,2-1.334,4h-5.4l-.5-4Z"/><path d="M22,51H18a1,1,0,0,0,0,2h4a1,1,0,0,0,0-2Z"/><path d="M29.244,15.03l-3.983-1a.992.992,0,0,0-.243-.03H23a1,1,0,0,0-1,1,2,2,0,0,1-4,0,1,1,0,0,0-1-1H14.975a1.006,1.006,0,0,0-.244.03l-3.975,1A1,1,0,0,0,10,16v4a1,1,0,0,0,1.243.97L14,20.281V29a1,1,0,0,0,1,1H25a1,1,0,0,0,1-1V20.281l2.757.689A1,1,0,0,0,30,20V16A1,1,0,0,0,29.244,15.03ZM28,18.719l-2.757-.689a1.009,1.009,0,0,0-.858.182A1,1,0,0,0,24,19v9H16V19a1,1,0,0,0-1.243-.97L12,18.719V16.78L15.1,16h1.027a4,4,0,0,0,7.748,0h1.02L28,16.78Z"/></g></svg>
